<?xml version="1.0" encoding="utf-8"?><svg xmlns="http://www.w3.org/2000/svg" xmlns:xlink="http://www.w3.org/1999/xlink"><symbol viewBox="0 0 512 512" id="facebook" xmlns="http://www.w3.org/2000/svg"><path d="M365.075 307.969c-.209-21.573-17.756-38.95-39.33-38.95h-36.052v-54.677c0-15.267 12.377-27.643 27.643-27.643h13.209c19.534 0 35.37-15.836 35.37-35.37s-15.836-35.37-35.37-35.37H298.02c-48.044 0-86.991 38.947-86.991 86.991v66.067h-25.613c-21.722 0-39.332 17.609-39.332 39.332 0 21.722 17.609 39.332 39.332 39.332h25.613v149.794h78.665V347.682h36.052c21.871 0 39.541-17.843 39.329-39.713z" fill="#cee8fa"/><g fill="#2d527c"><path d="M289.693 512h-78.665c-8.021 0-14.523-6.502-14.523-14.523V362.206h-11.09c-29.695 0-53.855-24.159-53.855-53.855s24.159-53.856 53.855-53.856h11.09v-51.544c0-55.975 45.539-101.514 101.514-101.514h32.525c27.511 0 49.893 22.382 49.893 49.893 0 27.51-22.382 49.893-49.893 49.893h-13.209c-7.234 0-13.12 5.886-13.12 13.12v40.154h21.529c29.409 0 53.567 23.925 53.853 53.332.141 14.484-5.395 28.128-15.588 38.419s-23.782 15.958-38.266 15.958h-21.528v135.271c.001 8.021-6.501 14.523-14.522 14.523zm-64.14-29.046h49.618V347.682c0-8.021 6.502-14.523 14.523-14.523h36.052c6.672 0 12.933-2.611 17.627-7.352 4.695-4.74 7.246-11.026 7.18-17.698-.131-13.547-11.26-24.569-24.808-24.569h-36.052c-8.021 0-14.523-6.502-14.523-14.523V214.34c0-23.25 18.915-42.166 42.166-42.166h13.209c11.495 0 20.847-9.351 20.847-20.847 0-11.495-9.351-20.847-20.847-20.847H298.02c-39.959 0-72.468 32.509-72.468 72.468v66.067c0 8.021-6.502 14.523-14.523 14.523h-25.613c-13.679 0-24.808 11.129-24.808 24.81 0 13.679 11.129 24.808 24.808 24.808h25.613c8.021 0 14.523 6.502 14.523 14.523v135.275z"/><path d="M432.464 512h-37.766c-8.021 0-14.523-6.502-14.523-14.523s6.502-14.523 14.523-14.523h37.766c27.839 0 50.49-22.65 50.49-50.49V79.536c0-27.839-22.65-50.49-50.49-50.49H214.367c-8.021 0-14.523-6.502-14.523-14.523S206.346 0 214.367 0h218.097C476.321 0 512 35.679 512 79.536v352.928C512 476.321 476.321 512 432.464 512zm-142.771 0H79.536C35.679 512 0 476.321 0 432.464V79.536C0 35.679 35.679 0 79.536 0h32.684c8.021 0 14.523 6.502 14.523 14.523s-6.502 14.523-14.523 14.523H79.536c-27.839 0-50.49 22.65-50.49 50.49v352.928c0 27.839 22.65 50.49 50.49 50.49h210.157c8.021 0 14.523 6.502 14.523 14.523S297.714 512 289.693 512z"/></g></symbol><symbol viewBox="0 0 512.001 512.001" id="instagram" xmlns="http://www.w3.org/2000/svg"><path d="M432.464 512.001h-37.767c-8.02 0-14.523-6.502-14.523-14.523s6.503-14.523 14.523-14.523h37.767c27.839 0 50.49-22.65 50.49-50.49V79.537c0-27.839-22.65-50.49-50.49-50.49H214.367c-8.02 0-14.523-6.502-14.523-14.523S206.347.001 214.367.001h218.098c43.855 0 79.536 35.679 79.536 79.536v352.928c-.001 43.857-35.68 79.536-79.537 79.536zm-142.77 0H79.536C35.679 512.001 0 476.322 0 432.465V79.537C0 35.68 35.679.001 79.536.001h32.684c8.02 0 14.523 6.502 14.523 14.523s-6.503 14.523-14.523 14.523H79.536c-27.839 0-50.49 22.65-50.49 50.49v352.928c0 27.839 22.65 50.49 50.49 50.49h210.158c8.02 0 14.523 6.502 14.523 14.523.001 8.021-6.503 14.523-14.523 14.523z" fill="#2d527c"/><path d="M359.599 102.056H152.401c-27.806 0-50.347 22.541-50.347 50.347V359.6c0 27.806 22.541 50.347 50.347 50.347h207.197c27.806 0 50.347-22.541 50.347-50.347V152.402c.001-27.806-22.54-50.346-50.346-50.346zM256.001 330.781c-41.299 0-74.78-33.48-74.78-74.78s33.48-74.78 74.78-74.78 74.78 33.48 74.78 74.78-33.481 74.78-74.78 74.78z" fill="#cee8fa"/><g fill="#2d527c"><path d="M359.599 424.47H152.403c-35.77 0-64.87-29.1-64.87-64.87V152.402c0-35.769 29.1-64.87 64.87-64.87h207.196c35.77 0 64.87 29.1 64.87 64.87v207.197c0 35.769-29.101 64.871-64.87 64.871zM152.403 116.579c-19.754 0-35.824 16.07-35.824 35.824V359.6c0 19.753 16.07 35.824 35.824 35.824h207.196c19.754 0 35.824-16.07 35.824-35.824V152.402c0-19.753-16.07-35.824-35.824-35.824H152.403v.001zm103.598 228.725c-49.242 0-89.303-40.061-89.303-89.303s40.061-89.303 89.303-89.303 89.303 40.061 89.303 89.303-40.061 89.303-89.303 89.303zm0-149.56c-33.226 0-60.256 27.03-60.256 60.257s27.03 60.257 60.256 60.257 60.257-27.03 60.257-60.257-27.033-60.257-60.257-60.257z"/><circle cx="346.406" cy="164.504" r="20.449"/></g></symbol><symbol viewBox="0 0 512.001 512.001" id="vk" xmlns="http://www.w3.org/2000/svg"><path d="M432.464 512.001h-37.767c-8.02 0-14.523-6.503-14.523-14.523s6.503-14.523 14.523-14.523h37.767c27.839 0 50.49-22.65 50.49-50.49V79.537c0-27.839-22.65-50.49-50.49-50.49H214.367c-8.021 0-14.523-6.503-14.523-14.523S206.346.001 214.367.001h218.098c43.855 0 79.536 35.679 79.536 79.536v352.93c-.001 43.855-35.68 79.534-79.537 79.534zm-142.77 0H79.536C35.679 512.001 0 476.322 0 432.465V79.537C0 35.68 35.679.001 79.536.001h32.684c8.021 0 14.523 6.503 14.523 14.523s-6.502 14.523-14.523 14.523H79.536c-27.839 0-50.49 22.65-50.49 50.49v352.93c0 27.839 22.65 50.49 50.49 50.49h210.158c8.02 0 14.523 6.503 14.523 14.523s-6.503 14.521-14.523 14.521z" fill="#2d527c"/><path d="M409.589 356.56c-11.793 0-26.217-.331-32.376-.471-1.855-.042-3.064-.07-3.394-.071-9.868-.044-18.366-3.427-25.256-10.057-5.59-5.379-11.001-11.261-16.234-16.95-2.963-3.218-6.024-6.547-9.113-9.78-3.114-3.258-6.046-5.92-8.968-8.14-3.791-2.89-7.831-4.421-11.672-4.421-6.352 0-11.584 3.994-14.352 10.959-3.181 8.03-5.622 27.642-5.712 28.852-.392 5.507-3.541 8.338-9.627 8.672-3.991.216-7.908.328-11.64.328-24.047 0-44.348-4.613-62.063-14.103-17.914-9.595-33.977-23.648-49.103-42.961-19.111-24.393-36.321-52.671-55.802-91.685-.935-1.872-15.887-33.75-17.322-37.346-.408-1.675-.63-4.408.787-5.327 1.079-.102 4.364-.276 14.169-.276 16.35 0 40.411.495 41.742.542 6.736.365 10.407 3.016 13.019 9.456 11.412 28.178 25 51.943 41.541 72.648 2.507 3.153 5.782 6.158 9.468 8.683 2.587 1.775 5.362 2.713 8.023 2.713h.001c5.066 0 9.24-3.237 11.165-8.665 2.212-6.174 3.991-17.538 4.1-23.565.289-14.785-.038-24.428-.835-39.227-.745-13.684-7.253-21.859-19.871-24.925 3.838-4.151 9.068-5.214 17.056-5.641 4.472-.241 9.363-.359 14.957-.359 5.199 0 10.515.099 15.656.196 3.612.068 7.222.135 10.831.171 5.956.054 11.117.575 15.79 1.596 2.841.619 6.747 2.232 7.902 9.103.59 3.487.851 6.869.776 10.06-.148 6.546-.369 13.207-.581 19.648-.306 9.261-.624 18.838-.733 28.287-.087 7.333.537 14.092 1.853 20.09 1.74 7.877 6.464 12.576 12.641 12.576 2.595 0 6.575-.919 10.797-5.295 6.688-6.945 13.145-15.026 20.937-26.198 10.166-14.583 18.947-31.592 27.635-53.531 2.916-7.341 3.663-7.857 11.427-7.874 10.189-.026 20.376-.041 30.564-.041 8.94 0 17.882.013 26.823.041 3.409.015 6.161.367 8.412 1.082 1.541.491 2.873 1.205 2.135 4.46-2.722 12.076-9.701 22.623-16.028 31.559-7.687 10.85-15.774 21.737-23.594 32.266a3373.124 3373.124 0 00-12.32 16.655c-1.497 2.043-2.935 4.321-4.521 7.166-5.798 10.491-4.878 17.849 3.268 26.261 4.332 4.467 8.833 8.861 13.186 13.107 6.145 5.998 12.501 12.199 18.331 18.577 7.372 8.079 13.862 16.519 19.285 25.081 2.511 3.965 3.23 7.805 1.969 10.531-1.216 2.633-4.335 4.431-8.786 5.063-1.281.176-5.115.48-16.343.48z" fill="#cee8fa"/><path d="M409.589 371.083c-11.894 0-26.41-.331-32.607-.472-1.767-.041-2.88-.067-3.246-.07-13.517-.061-25.709-4.941-35.242-14.116-5.933-5.711-11.485-11.745-16.853-17.582l-.186-.203c-2.857-3.102-5.809-6.31-8.74-9.378-2.575-2.694-4.949-4.858-7.256-6.611-1.335-1.018-2.314-1.362-2.726-1.439-.202.219-.6.741-1.012 1.781-1.971 4.976-4.271 20.18-4.735 24.692-.967 12.806-9.889 21.234-23.307 21.969-4.265.231-8.445.349-12.435.349-26.502 0-49.046-5.176-68.922-15.824-19.727-10.566-37.285-25.877-53.678-46.807-19.733-25.187-37.425-54.225-57.362-94.151-.847-1.696-16.122-34.201-17.818-38.456a14.525 14.525 0 01-.622-1.945c-2.128-8.74.55-16.766 6.991-20.945a14.513 14.513 0 016.538-2.274c.892-.086 3.605-.341 15.537-.341 16.745 0 40.825.501 42.252.55.091.004.183.007.274.013 12.34.668 20.984 6.891 25.691 18.498 10.881 26.868 23.779 49.45 39.429 69.043 1.185 1.492 2.706 2.986 4.408 4.344 1.316-5.025 2.412-12.545 2.482-16.376.282-14.356-.039-23.75-.816-38.183-.444-8.146-3.191-10.23-8.798-11.592a14.525 14.525 0 01-7.234-23.971c7.561-8.177 17.418-9.773 26.945-10.282 4.735-.256 9.883-.381 15.733-.381 5.365 0 10.736.1 15.928.199 3.571.067 7.141.134 10.709.17 6.944.062 13.08.694 18.738 1.929 10.297 2.241 17.272 9.852 19.127 20.881.742 4.386 1.069 8.699.973 12.811-.147 6.496-.363 13.085-.575 19.457l-.012.33c-.306 9.266-.619 18.723-.726 27.974-.07 5.907.386 11.293 1.354 16.031 5.773-6.133 11.514-13.402 18.44-23.334 9.504-13.633 17.779-29.703 26.044-50.57 5.116-12.881 11.165-17.021 24.9-17.05 19.15-.048 38.309-.061 57.462 0 4.922.02 9.092.597 12.763 1.763 9.363 2.985 14.141 11.627 11.902 21.513-3.305 14.671-11.2 26.657-18.34 36.742-7.761 10.955-15.874 21.876-23.718 32.44a3467.749 3467.749 0 00-12.34 16.68c-1.131 1.544-2.261 3.34-3.547 5.648-2.826 5.114-2.462 5.49 1.017 9.083 4.197 4.326 8.619 8.643 12.897 12.817 6.328 6.177 12.815 12.509 18.908 19.172 7.953 8.714 14.959 17.83 20.836 27.109 5.201 8.214 6.252 17.105 2.884 24.393-1.939 4.2-7.109 11.528-19.927 13.35-1.925.265-5.904.622-18.382.622zm-107.013-78.938c7.051 0 14.132 2.558 20.479 7.395 3.523 2.678 7.015 5.84 10.661 9.655 3.117 3.263 6.162 6.57 9.107 9.771l.19.208c5.08 5.523 10.326 11.226 15.621 16.323 4.165 4.008 9.154 5.97 15.249 5.998.354.001 1.66.029 3.661.076 6.197.141 20.479.466 32.042.466 2.682 0 4.89-.019 6.697-.046-4.024-5.706-8.564-11.334-13.552-16.797-5.525-6.043-11.71-12.082-17.694-17.922-4.472-4.363-9.039-8.82-13.522-13.443-12.657-13.068-14.471-27.261-5.552-43.397 1.911-3.427 3.657-6.185 5.517-8.725 4.107-5.597 8.242-11.164 12.377-16.732 7.819-10.526 15.832-21.316 23.403-32 3.098-4.376 6.37-9.168 9.02-14.204-15.829-.035-31.673-.02-47.515.017-8.945 22.385-18.086 39.956-28.709 55.192-8.251 11.831-15.155 20.456-22.389 27.967-7.768 8.056-15.846 9.745-21.258 9.745-13.078 0-23.606-9.408-26.823-23.966-1.557-7.096-2.293-14.96-2.194-23.394.11-9.561.428-19.176.736-28.475l.014-.447c.209-6.299.424-12.809.568-19.168a36.274 36.274 0 00-.272-5.198c-2.937-.444-6.171-.677-9.81-.709-3.667-.038-7.321-.105-10.974-.174-5.384-.1-10.998-.209-16.356-.192 1.892 4.63 3.019 9.854 3.333 15.611.816 15.162 1.152 25.058.853 40.299-.132 7.296-2.152 20.375-4.948 28.179-3.997 11.264-13.52 18.289-24.837 18.289-5.607 0-11.223-1.818-16.24-5.259-4.858-3.329-9.225-7.349-12.622-11.623-17.406-21.791-31.685-46.737-43.632-76.233a17.79 17.79 0 00-.167-.394l-.036-.003c-2.212-.061-20.973-.437-36.019-.514 4.425 9.524 9.559 20.46 10.291 21.943 19.021 38.091 35.749 65.605 54.232 89.197 13.858 17.695 28.423 30.488 44.528 39.115 15.553 8.332 33.611 12.382 55.205 12.382 2.373 0 4.833-.048 7.35-.145.951-7.145 3.064-20.804 6.127-28.532 5.018-12.614 15.43-20.136 27.86-20.136z" fill="#2d527c"/></symbol></svg>